<?xml version="1.0" encoding="utf-8"?>
<!-- Generator: Adobe Illustrator 24.0.1, SVG Export Plug-In . SVG Version: 6.00 Build 0)  -->
<svg version="1.1" id="Layer_1" xmlns="http://www.w3.org/2000/svg" xmlns:xlink="http://www.w3.org/1999/xlink" x="0px" y="0px"
	 viewBox="0 0 399.2 420.4" style="enable-background:new 0 0 399.2 420.4;" xml:space="preserve">
<style type="text/css">
	.st0{fill:url(#SVGID_1_);}
</style>
<radialGradient id="SVGID_1_" cx="201.5031" cy="120.6299" r="120.5821" gradientTransform="matrix(1 0 0 -1 0 422.4)" gradientUnits="userSpaceOnUse">
	<stop  offset="0" style="stop-color:#BFF268"/>
	<stop  offset="1" style="stop-color:#47B9BC"/>
</radialGradient>
<path class="st0" d="M199.7,117c2.2,0,4.4,0.6,6.4,1.6l69.8,40.3c4,2.2,6.4,6.4,6.4,11.1v80.5c0,4.6-2.4,8.7-6.4,11.1l-69.8,40.3
	c-4,2.2-8.9,2.2-12.7,0l-69.8-40.3c-3.8-2.2-6.2-6.4-6.4-11.1v-80.5c0-4.6,2.4-8.7,6.4-11.1l69.8-40.3
	C195.3,117.6,197.5,117,199.7,117 M199.7,105.3c-4.2,0-8.5,1.2-12.3,3.2l-69.8,40.3c-7.6,4.4-12.3,12.5-12.3,21.1v80.5
	c0,8.7,4.6,16.9,12.3,21.1l69.8,40.3c7.6,4.4,16.9,4.4,24.4,0l69.8-40.3c7.4-4.4,12.1-12.3,12.3-20.9v-80.5
	c0-8.7-4.6-16.9-12.3-21.1l-69.8-40.3C208.4,106.5,204.1,105.5,199.7,105.3L199.7,105.3z M214.2,211.6l24.4-6.4
	c1.2-0.4,2.6,0.4,3,1.8c0.2,0.6,0,1.2-0.2,1.6l-30.8,61.6c-0.6,1.2-2,1.6-3.2,1c-0.6-0.2-0.8-0.6-1.2-1.2l-7.8-15.5
	c-1.4-2.8-1.6-6-0.8-9.3l8.3-26C206.9,215.8,210.2,212.6,214.2,211.6z M133.7,194l82.9-27.6c2.6-0.8,5-0.8,7.6,0l27,9.1
	c1.2,0.4,1.8,1.8,1.4,3.2c-0.2,0.6-0.6,1.2-1.2,1.4l-79.5,37.2c-3.8,1.8-8.5,1.6-11.9-0.8l-26.8-18.3c-1.2-0.8-1.4-2.2-0.6-3.4
	C132.7,194.5,133.3,194,133.7,194z"/>
</svg>
